<?xml version="1.0" encoding="iso-8859-1"?>
<!-- Generator: Adobe Illustrator 16.0.0, SVG Export Plug-In . SVG Version: 6.00 Build 0)  -->
<!DOCTYPE svg PUBLIC "-//W3C//DTD SVG 1.1//EN" "http://www.w3.org/Graphics/SVG/1.1/DTD/svg11.dtd">
<svg version="1.1" id="Capa_1" xmlns="http://www.w3.org/2000/svg" xmlns:xlink="http://www.w3.org/1999/xlink" x="0px" y="0px"
	 width="28.873px" height="28.873px" viewBox="0 0 28.873 28.873" style="enable-background:new 0 0 28.873 28.873;"
	 xml:space="preserve">
<g>
	<g>
		<path d="M13.322,4.229h-6.7v6.701h6.7V4.229z M8.394,6.647c-0.409,0-0.74-0.331-0.74-0.739c0-0.408,0.331-0.739,0.74-0.739
			c0.407,0,0.738,0.331,0.738,0.739C9.132,6.316,8.802,6.647,8.394,6.647z M9.908,8.32c-0.407,0-0.738-0.332-0.738-0.739
			c0-0.409,0.331-0.74,0.738-0.74c0.409,0,0.741,0.331,0.741,0.74C10.648,7.988,10.316,8.32,9.908,8.32z M11.606,9.93
			c-0.408,0-0.739-0.33-0.739-0.74c0-0.406,0.331-0.738,0.739-0.738c0.408,0,0.739,0.332,0.739,0.738
			C12.347,9.6,12.016,9.93,11.606,9.93z"/>
		<path d="M24.423,12.417C26.315,3.148,18.785-1.094,10.428,0.24C2.07,1.574,2.382,6.629,1.891,9.045
			C0.912,15.09,7.137,21.849,7.137,21.849l-0.355,7.024h10.137l0.776-3.23c0,0,0.44,0.738,3.061,0.961
			c2.619,0.222,2.3-2.978,2.3-2.978s1.743-0.768,1.743-1.345s-1.031-1.322-1.031-1.322s1.109,0.2,1.511-0.268
			c0.399-0.466-0.489-2.155-0.489-2.155s1.366-0.033,2.173-0.921C27.767,16.729,24.423,14.105,24.423,12.417z M13.648,11.258H6.294
			V3.903h7.354V11.258z M21.786,14.192h-7.35v-1.083h0.688c0.225-0.185,1.272-1.095,1.625-2.054
			c0.218-0.589,0.245-1.227,0.229-1.685c-0.477-0.35-0.784-0.911-0.784-1.545c0-1.06,0.858-1.918,1.918-1.918
			c1.062,0,1.918,0.858,1.918,1.918c0,0.581-0.258,1.1-0.665,1.45c-0.06,0.51-0.102,1.276,0.083,1.842
			c0.271,0.825,1.417,1.8,1.65,1.991h0.688V14.192z"/>
	</g>
</g>
<g>
</g>
<g>
</g>
<g>
</g>
<g>
</g>
<g>
</g>
<g>
</g>
<g>
</g>
<g>
</g>
<g>
</g>
<g>
</g>
<g>
</g>
<g>
</g>
<g>
</g>
<g>
</g>
<g>
</g>
</svg>
